<?xml version="1.0" standalone="no"?>
<!DOCTYPE svg PUBLIC "-//W3C//DTD SVG 20010904//EN"
 "http://www.w3.org/TR/2001/REC-SVG-20010904/DTD/svg10.dtd">
<svg version="1.0" xmlns="http://www.w3.org/2000/svg"
 width="229.000000pt" height="277.000000pt" viewBox="0 0 229.000000 277.000000"
 preserveAspectRatio="xMidYMid meet">

<g transform="translate(0.000000,277.000000) scale(0.100000,-0.100000)"
fill="#000000" stroke="none">
<path d="M940 2746 c-211 -75 -362 -244 -416 -466 -19 -79 -19 -475 0 -521 22
-53 52 -85 101 -108 25 -12 45 -28 45 -35 0 -8 -24 -31 -52 -52 -74 -52 -132
-125 -170 -213 -32 -74 -33 -81 -36 -238 l-4 -162 -60 -20 c-162 -55 -288
-196 -324 -364 -9 -42 -13 -143 -14 -314 l0 -253 1141 0 1141 0 -4 283 c-5
299 -7 310 -61 417 -30 61 -114 148 -179 188 -58 34 -158 63 -378 107 -74 15
-140 32 -146 39 -12 11 -64 165 -64 187 0 6 22 35 49 64 74 81 121 194 121
292 l0 52 48 24 c28 14 59 40 77 66 l30 43 3 216 c4 262 -4 316 -65 442 -77
161 -220 284 -390 335 -33 10 -92 15 -188 14 -120 0 -149 -3 -205 -23z m307
-61 c210 -40 379 -193 437 -397 13 -44 16 -104 16 -276 0 -207 -1 -221 -21
-246 -11 -14 -27 -26 -35 -26 -11 0 -14 27 -14 153 l0 152 -48 26 c-26 14
-104 58 -174 98 -150 85 -204 106 -322 121 -134 18 -270 10 -329 -20 -82 -41
-87 -60 -87 -314 0 -118 -4 -217 -9 -220 -5 -4 -21 8 -35 25 l-26 31 0 222 c0
205 2 229 23 293 63 195 223 338 422 377 92 19 109 19 202 1z m-76 -498 c58
-19 82 -31 242 -120 l128 -72 -3 -255 -3 -255 -34 -63 c-106 -194 -336 -268
-533 -168 -108 55 -186 164 -208 293 -7 45 -10 165 -8 340 3 286 4 293 53 314
32 14 313 3 366 -14z m-480 -734 c7 -21 23 -57 36 -81 24 -43 24 -44 21 -310
-3 -248 -5 -270 -24 -313 -40 -85 -109 -145 -202 -174 l-23 -7 3 354 3 353 30
59 c33 65 109 156 130 156 7 0 19 -17 26 -37z m299 -305 c80 -31 241 -31 323
1 33 13 62 19 67 15 4 -5 20 -46 35 -92 26 -81 26 -83 10 -127 -24 -61 -73
-115 -136 -150 -48 -26 -64 -30 -139 -30 -75 0 -91 4 -139 30 -63 35 -114 91
-137 151 -16 41 -15 45 11 126 31 92 33 98 43 98 4 0 32 -10 62 -22z m599
-227 c18 -12 4 -53 -44 -126 -102 -153 -298 -238 -472 -206 -80 15 -173 57
-225 103 -38 33 -38 33 -26 78 6 25 13 47 14 49 2 2 26 -17 52 -42 156 -145
394 -138 540 17 27 28 57 70 68 93 16 36 24 42 49 43 17 0 36 -4 44 -9z m246
-51 c162 -37 243 -90 309 -203 48 -81 58 -153 54 -387 l-3 -195 -155 -3 c-206
-4 -200 -6 -200 66 0 48 4 62 23 80 70 66 97 205 58 296 -12 27 -35 64 -51 83
-19 21 -30 45 -30 63 0 29 -2 30 -45 30 l-45 0 0 -52 c0 -48 3 -56 33 -80 92
-73 90 -224 -5 -298 -25 -19 -27 -27 -30 -103 l-3 -82 -597 -3 -598 -2 0 82 0
83 -40 37 c-44 42 -73 119 -61 164 6 24 15 29 69 40 77 16 150 55 205 110 l43
42 64 -43 c99 -66 196 -95 317 -95 62 0 120 6 154 16 151 45 282 152 349 286
51 103 48 99 73 93 12 -2 62 -14 112 -25z m-1425 -152 c0 -120 -2 -136 -26
-186 -45 -96 -23 -223 52 -303 22 -23 25 -34 22 -85 l-3 -59 -175 0 -175 0 -3
215 c-2 141 1 230 9 260 18 69 75 165 122 205 45 39 156 97 169 89 4 -3 8 -64
8 -136z"/>
<path d="M1310 1882 c-19 -5 -40 -32 -40 -48 0 -21 30 -44 56 -44 27 0 51 38
41 64 -8 19 -38 35 -57 28z"/>
<path d="M940 1865 c-15 -18 -5 -64 15 -72 45 -17 87 26 65 67 -13 24 -61 27
-80 5z"/>
<path d="M1023 1483 c-18 -9 -33 -22 -33 -28 0 -14 57 -68 87 -84 12 -6 45
-11 73 -11 28 0 61 5 73 11 30 16 87 70 87 84 0 6 -17 19 -37 29 -34 16 -37
16 -46 1 -5 -9 -24 -23 -43 -31 -30 -12 -39 -12 -69 0 -19 8 -38 22 -41 31 -7
18 -10 18 -51 -2z"/>
<path d="M1585 451 c-55 -23 -79 -112 -46 -174 27 -50 99 -58 138 -15 27 30
26 140 -2 167 -24 24 -63 33 -90 22z m59 -57 c18 -48 -3 -124 -34 -124 -31 0
-51 81 -30 121 13 23 55 25 64 3z"/>
<path d="M1390 430 c0 -13 7 -20 20 -20 17 0 19 -8 22 -87 3 -83 4 -88 26 -91
22 -3 22 -2 22 107 l0 111 -45 0 c-38 0 -45 -3 -45 -20z"/>
</g>
</svg>
